<svg xmlns="http://www.w3.org/2000/svg" viewBox="0 0 200 200" width="200" height="200">
  <!-- App icon rounded square background -->
  <rect x="0" y="0" width="200" height="200" rx="44" ry="44" fill="#f5f5ed"/>
  <!-- Book body -->
  <rect x="28" y="28" width="144" height="144" rx="10" ry="10" fill="#1a3a2a"/>
  <!-- Book spine -->
  <rect x="28" y="28" width="17" height="144" rx="6" ry="6" fill="#15301f"/>
  <!-- Bookmark -->
  <polygon points="96,28 118,28 118,72 107,63 96,72" fill="#6bbf4e"/>
  <!-- White K stem -->
  <rect x="50" y="58" width="17" height="68" rx="2" fill="white"/>
  <!-- Green K arms -->
  <polygon points="67,92 106,58 120,58 84,92" fill="#6bbf4e"/>
  <polygon points="67,92 106,126 120,126 84,92" fill="#6bbf4e"/>
  <!-- Lines -->
  <rect x="46" y="138" width="62" height="6" rx="3" fill="#3a6640" opacity="0.8"/>
  <rect x="46" y="150" width="48" height="6" rx="3" fill="#3a6640" opacity="0.6"/>
</svg>
